<svg width="131" height="100" viewBox="0 0 131 100" fill="none" xmlns="http://www.w3.org/2000/svg">
<path d="M49.1906 18.625L54.0107 17.6187V0H48.0155C31.3248 0 18.6029 4.81875 10.1915 14.325C-1.12749 27.125 0.0116101 43.5625 0.0475815 43.75V93.75C0.0475815 95.4076 0.679222 96.9973 1.80355 98.1694C2.92787 99.3415 4.45278 100 6.04282 100H48.0095C54.6223 100 60 94.3938 60 87.5V43.75C60 42.0924 59.3684 40.5027 58.244 39.3306C57.1197 38.1585 55.5948 37.5 54.0048 37.5H29.5502C29.6821 34.9875 30.2876 31.8 32.1221 28.775C35.1737 23.7688 40.9111 20.3563 49.1906 18.625Z" fill="#BDBCB4" fill-opacity="0.63"/>
<path d="M120.191 18.625L125.011 17.6187V0H119.016C102.325 0 89.6029 4.81875 81.1915 14.325C69.8725 27.125 71.0116 43.5625 71.0476 43.75V93.75C71.0476 95.4076 71.6792 96.9973 72.8035 98.1694C73.9279 99.3415 75.4528 100 77.0428 100H119.01C125.622 100 131 94.3938 131 87.5V43.75C131 42.0924 130.368 40.5027 129.244 39.3306C128.12 38.1585 126.595 37.5 125.005 37.5H100.55C100.682 34.9875 101.288 31.8 103.122 28.775C106.174 23.7688 111.911 20.3563 120.191 18.625Z" fill="#BDBCB4" fill-opacity="0.63"/>
</svg>
