<svg width="20" height="20" viewBox="0 0 20 20" fill="none" xmlns="http://www.w3.org/2000/svg">
<path d="M10 0C8.02219 0 6.08879 0.58649 4.4443 1.6853C2.79981 2.78412 1.51809 4.3459 0.761209 6.17316C0.00433286 8.00043 -0.1937 10.0111 0.192152 11.9509C0.578004 13.8907 1.53041 15.6725 2.92894 17.0711C4.32746 18.4696 6.10929 19.422 8.0491 19.8078C9.98891 20.1937 11.9996 19.9957 13.8268 19.2388C15.6541 18.4819 17.2159 17.2002 18.3147 15.5557C19.4135 13.9112 20 11.9778 20 10C19.9971 7.34874 18.9425 4.80691 17.0678 2.93218C15.1931 1.05745 12.6513 0.00294095 10 0ZM11.1111 17.6972V12.5926H12.963C13.2576 12.5926 13.5403 12.4755 13.7486 12.2672C13.957 12.0588 14.0741 11.7762 14.0741 11.4815C14.0741 11.1868 13.957 10.9042 13.7486 10.6958C13.5403 10.4874 13.2576 10.3704 12.963 10.3704H11.1111V8.51852C11.1111 8.22383 11.2282 7.94122 11.4366 7.73284C11.6449 7.52447 11.9275 7.40741 12.2222 7.40741H13.7037C13.9984 7.40741 14.281 7.29034 14.4894 7.08197C14.6978 6.8736 14.8148 6.59098 14.8148 6.2963C14.8148 6.00161 14.6978 5.71899 14.4894 5.51062C14.281 5.30225 13.9984 5.18518 13.7037 5.18518H12.2222C11.3382 5.18518 10.4903 5.53637 9.8652 6.1615C9.24008 6.78662 8.88889 7.63446 8.88889 8.51852V10.3704H7.03704C6.74235 10.3704 6.45974 10.4874 6.25137 10.6958C6.04299 10.9042 5.92593 11.1868 5.92593 11.4815C5.92593 11.7762 6.04299 12.0588 6.25137 12.2672C6.45974 12.4755 6.74235 12.5926 7.03704 12.5926H8.88889V17.6972C6.94268 17.4163 5.17511 16.4087 3.9419 14.877C2.70869 13.3454 2.10138 11.4036 2.2422 9.44223C2.38301 7.4809 3.2615 5.64571 4.70087 4.30598C6.14023 2.96625 8.03363 2.22144 10 2.22144C11.9664 2.22144 13.8598 2.96625 15.2991 4.30598C16.7385 5.64571 17.617 7.4809 17.7578 9.44223C17.8986 11.4036 17.2913 13.3454 16.0581 14.877C14.8249 16.4087 13.0573 17.4163 11.1111 17.6972Z" fill="#888888"/>
</svg>
